Patient4_TMGait_0pt4_01_left_04_EMG.mot
version=1
nRows=39
nColumns=33
inDegrees=no
endheader
time	1LAddLong	2LGlutMax	3LGlutMed	4LIliopsoas	5LSemiMemb	6LBicFemLong	7LRecFem	8LVastMed	9LVastLat	10LGasMed	11LTibAnt	12lTibPost	13LPeroneusLong	14LSol	15LExtDigLong	16LFlexDigLong	17RAddLong	18RGlutMax	19RGlutMed	20RIliopsoas	21RSemiMemb	22RBicFemLong	23RRecFem	24RVastMed	25RVastLat	26RGasMed	27RTibAnt	28RTibPost	29RPeroneusLong	30RSol	31RExtDigLong	32RFlexDigLong
5.443	0.00824	0.035858	-0.061493	-0.002289	-0.022583	-0.037689	0.03067	0.009613	0.056763	-0.027008	0.000458	0.017395	0.050507	0.028534	0.076447	-0.013123	-0.028229	-0.28381	0.2179	0.010986	-0.03418	-0.036163	0.044098	0.034027	-0.070953	0.010986	-0.057068	-0.018616	-0.14206	0.092926	-0.002289	-0.007782
5.444	0.007477	0.040741	-0.011597	0.002289	-0.007629	-0.059662	0.045471	0.003052	0.048981	-0.033112	-0.010376	0.006714	0.022125	-0.000763	0.05188	-0.010681	-0.053558	-0.2626	0.069427	-0.043945	-0.099792	-0.046844	0.045471	0.065308	-0.046234	0.017853	0.018158	-0.015717	-0.4303	0.071716	-0.007019	-0.00885
5.445	0.007324	0.05249	0.0383	0.008392	0.015869	-0.056915	0.034943	-0.00412	0.058289	-0.032654	0.02121	0.015869	-0.014038	0.028839	0.030518	-0.006714	-0.03006	-0.24567	-0.09491	-0.031433	0.017853	-0.084381	0.020142	0.08667	-0.024872	0.023804	0.035248	-0.010834	-0.46097	0.08316	-0.005493	-0.006866
5.446	0.004578	0.007782	0.072327	0.000305	0.027771	-0.072784	0.040894	0.005951	0.062256	-0.043488	0.001221	0.00946	-0.003204	0.051422	0.024414	0.004883	0.010529	-0.18875	-0.23727	-0.013885	0.074005	-0.027313	0.017395	0.023956	-0.025482	0.013275	0.15335	-0.020294	-0.095367	0.090485	-0.00412	-0.000458
5.447	0.009308	0.036011	0.037079	0.00885	0.006866	-0.066681	0.009003	0.004272	0.058289	-0.046844	0.000458	0.004578	0.010834	0.072784	0.028839	-0.012512	0.073853	-0.13428	-0.28091	-0.001526	0.31189	-0.067902	0.096588	-0.036774	-0.040894	-0.001831	0.14053	-0.01297	0.004272	0.10315	-0.003967	-0.00412
5.448	0.005035	0.011902	0.023193	0.007019	-0.016937	-0.050812	0.006409	0.00473	0.062714	-0.04425	0.018005	0.006256	0.015106	0.037689	0.019226	-0.003204	0.060425	-0.095978	-0.36285	0.033417	0.23743	-0.060425	0.11978	-0.062103	-0.048218	-0.00885	0.08667	-0.011597	-0.21561	0.069733	-0.001221	0.00061
5.449	-0.01297	0.006866	0.02655	0.008087	-0.022583	-0.059204	-0.027313	0.012207	0.061035	-0.032043	-0.003357	0.006256	0.024261	0.03418	0.013733	-0.00351	0.01709	-0.020752	-0.19608	0.058441	-0.17502	0.014038	0.12833	-0.006256	-0.0354	-0.014648	0.051422	-0.016785	0.14679	0.086975	-0.002899	-0.001526
5.45	-0.003204	0.016327	0.036621	0.014191	-0.020142	-0.068207	-0.028839	0.006866	0.056915	-0.028534	0.000153	0.000305	0.036163	-0.03418	0.00824	-0.010376	-0.049286	0.023193	-0.22095	0.089264	-0.44052	0.12985	0.048676	0.11292	-0.076447	-0.02243	0.068817	-0.016937	0.86929	0.048981	-0.000458	-0.009766
5.451	-0.006256	0.009766	0.000916	0.013123	0.014191	-0.045166	-0.035248	0.010376	0.050507	-0.031738	-0.004272	0.006104	0.031128	-0.012512	0.023804	-0.005035	-0.055389	0.068054	0.024414	0.047913	-0.16068	0.19531	0.090485	0.045319	-0.11353	-0.018005	-0.056152	-0.012207	1.0536	-0.066223	-0.005798	-0.001678
5.452	-0.001526	0.02594	-0.021515	0.013275	0.018463	-0.036011	-0.053253	-0.003967	0.053406	-0.034637	0.028992	0.007935	0.020294	0.024261	0.019989	-0.006104	-0.016022	0.14297	0.44952	-0.025024	0.061188	0.011292	0.22186	0.00824	-0.16342	-0.027161	-0.12772	0.006256	0.24277	0.02243	-0.005798	-0.009003
5.453	0.017242	0.037994	-0.032806	0.007629	-0.11749	-0.063629	-0.050659	-0.002289	0.050659	-0.027466	0.066528	0.006104	0.005951	-0.052643	0.016479	0.000458	0.005341	0.13672	0.72555	-0.036316	-0.000763	-0.042267	0.2478	-0.056305	-0.19394	-0.028687	0.07019	-0.001984	-0.020447	0.14893	-0.004883	-0.011902
5.454	0.00824	0.029144	0.009155	-0.002899	-0.19302	-0.087585	-0.05722	0.003967	0.044708	-0.032654	0.067444	-0.001068	0.000153	-0.11047	0.00885	0.003204	0.005951	0.082397	0.59525	-0.003967	-0.002136	0.028839	0.069427	-0.14252	-0.18265	-0.033569	0.22522	-0.010223	-0.56702	0.13321	-0.005951	-0.011292
5.455	0.000305	0.037231	-0.035858	-0.001831	-0.07019	-0.1329	-0.062714	-0.007629	0.051727	-0.035858	-0.025635	0.003662	0.019989	-0.083313	-0.007477	0.00351	0.017853	0.047302	-0.023499	-0.019836	-0.009308	0.071564	0.15793	-0.21027	-0.16022	-0.016174	0.099182	-0.007172	-0.36819	0.13611	-0.006409	-0.011292
5.456	0.009918	0.045471	-0.059967	-0.005646	0.04715	-0.092316	-0.053406	0.000458	0.045471	-0.040131	-0.046234	0.00885	0.011749	-0.075531	-0.009155	0.007629	0.020294	0.033722	-0.058136	-0.02533	-0.007782	0.028229	0.23544	-0.11643	-0.096436	0.001068	0.13016	-0.003967	-0.41138	0.19333	-0.00351	-0.009918
5.457	0.013123	0.048218	-0.089264	0.011444	0.075989	-0.065308	-0.04425	0.005951	0.053864	-0.046082	-0.023651	0.001984	0.031433	-0.17075	-0.003357	-0.003052	0.032196	0.035858	0.10483	-0.019226	0.001831	0.025787	0.31021	0.018921	-0.088043	0.003052	0.22034	-0.006409	0.35812	0.30045	-0.006409	-0.011749
5.458	0.00946	0.02182	-0.063019	0.008392	0.030212	-0.056	-0.051727	-0.002441	0.05127	-0.033264	-0.010986	0.001678	0.017853	-0.23438	-0.022888	0.002441	0.021515	0.031891	-0.074921	-0.030975	-0.02655	0.063171	0.27985	0.10956	0.010681	0.000153	0.15869	-0.002747	0.271	0.112	-0.003052	-0.015259
5.459	0.011292	0.061798	-0.049896	0.002441	-0.012665	-0.022888	-0.047302	-0.001221	0.029602	-0.040894	-0.00946	0.00824	-0.052185	-0.13336	-0.027161	0.003967	0.029144	0.010223	-0.1683	-0.044556	-0.047913	0.089417	0.26749	0.000305	-0.019073	-0.024414	0.11734	-0.006409	0.33814	0.018768	-0.004272	-0.013885
5.46	0.003204	0.043488	-0.078583	0.007477	-0.040436	-0.020294	-0.053558	-0.001373	0.03479	-0.037384	0.013275	0.003967	-0.026703	0.047302	-0.019073	0.00351	0.007782	-0.046844	-0.19608	-0.00412	-0.13733	0.023956	-0.2269	-0.17792	-0.063477	-0.044556	0.19379	-0.006104	-0.29511	-0.067749	-0.005188	-0.016937
5.461	-0.008087	0.030823	-0.065155	0.00824	-0.042572	-0.016174	-0.044708	-0.007019	0.036621	-0.052643	0.003815	0.007782	-0.00885	0.13901	-0.042877	0.010223	-0.037994	-0.050507	0.31448	-0.015411	0.0177	-0.03067	-0.74295	-0.16907	0.14496	-0.028992	0.032043	-0.000153	-0.085297	-0.16907	-0.004578	-0.010529
5.462	-0.007019	0.00473	-0.018921	0.00824	-0.059967	-0.058289	-0.051727	0.001831	0.029755	-0.042114	0.010071	0.011597	-0.021973	0.1355	-0.003357	0.008545	-0.028687	-0.024567	0.37872	-0.005493	-0.10574	-0.023804	-0.5217	-0.092316	0.25314	-0.016327	-0.18631	-0.002747	0.29633	-0.23605	-0.001831	-0.009308
5.463	-0.005188	0.013733	0.010376	-0.00061	-0.046234	-0.073242	-0.065765	0.005646	0.032501	-0.051727	0.027313	0.004425	-0.010529	0.057831	0.11261	0.012207	-0.004272	0.007172	-0.058899	0.070038	-0.18829	0.023499	-0.16174	-0.062714	0.16525	0.002441	-0.47104	-0.000153	-0.30258	-0.29236	-0.003204	-0.000153
5.464	0.001678	0.027771	0.064392	0.004578	-0.039978	-0.066681	-0.049438	-0.005951	0.050507	-0.057526	0.02243	0.004883	-0.013733	0.027771	-0.064392	0.000916	-0.016174	0.04776	-0.16327	0.04303	-0.056915	0.063477	-0.06134	-0.025787	0.073547	0.003662	-0.095215	-0.004425	-0.20966	-0.17517	-0.002289	0.001221
5.465	0.006714	0.02594	0.05722	-0.00351	-0.035095	-0.020599	-0.07309	0.001221	0.048523	-0.021515	0.013428	0.008087	0.014038	-0.056763	-0.036926	0.001526	-0.032196	0.033417	-0.24368	-0.046692	0.25925	0.092926	-0.047607	-0.016479	0.051117	-0.006409	0.16754	-0.010071	0.32074	-0.20065	-0.001068	-0.010223
5.466	0.007782	-0.00885	-0.023193	0.014038	0.009613	-0.03067	-0.080414	0.003204	0.057983	-0.029755	0.022736	0.007477	0.021057	-0.071106	-0.027161	0.014191	0.017395	-0.03006	-0.2507	-0.14725	0.21439	0.038452	0.092468	0.073395	0.1059	-0.010834	0.27664	-0.011749	-0.16144	0.013275	-0.004272	-0.008698
5.467	0.009766	0.004883	-0.006866	0.010681	0.018158	-0.077209	-0.09964	0.006714	0.048523	-0.046082	0.047455	0.007935	0.010681	0.042419	0.013885	0.010834	0.019531	-0.012054	-0.007477	-0.16388	0.17532	0.019226	0.14069	0.15106	0.16678	0.002136	0.10941	-0.003815	-0.30075	-0.044556	-0.001678	-0.007477
5.468	0.00946	0.042267	0.014954	0.00885	0.015564	-0.054321	-0.10254	-0.003357	0.055847	-0.066223	0.008087	0.005951	0.007172	0.088959	0.019684	0.009155	0.00885	0.032654	0.24826	-0.050354	0.071564	0.042114	0.067139	0.096741	0.18829	0.009155	0.030212	-0.001373	0.67658	-0.13062	-0.001831	-0.002289
5.469	0.002594	0.004425	0.026398	-0.002899	-0.010681	-0.031891	-0.10559	-0.002289	0.059204	-0.074921	0.013123	0.002594	0.023346	0.13962	-0.00946	0.007782	0.029297	0.009308	0.07431	0.060883	0.054474	-0.054321	-0.17303	-0.036011	0.29984	0.003815	-0.28503	-0.004272	1.1067	-0.023193	0.001831	-0.007324
5.47	-0.004425	-0.02121	-0.014801	-0.011597	-0.050659	-0.025482	-0.12085	-0.009003	0.048218	-0.044556	-0.047302	0.006104	0.052185	0.066376	-0.049286	0.006256	0.026245	-0.023651	-0.24979	0.11963	-0.12207	-0.089111	-0.16556	-0.001221	0.36713	-0.001068	-0.60577	-0.007019	0.43137	0.016479	0.001373	-0.009308
5.471	0.008545	0.011444	-0.001068	0.001068	-0.012512	-0.040588	-0.12756	-0.005493	0.04776	-0.018158	-0.011749	0.006866	0.029449	-0.009766	-0.08728	0.015564	0.026093	-0.054779	-0.028076	0.072021	-0.099335	-0.18448	0.084839	-0.014801	0.28763	-0.000916	-0.25986	0.00061	-0.76553	-0.16907	-0.004272	-0.010986
5.472	-0.000458	0.059052	0.002136	-0.004578	-0.027161	-0.003357	-0.12741	-0.003815	0.056305	-0.010223	0.033569	0.007629	0.009766	-0.063477	-0.067596	-0.013123	0.005798	-0.1709	0.22003	-0.007324	-0.074615	-0.15793	0.10895	0.014496	0.17197	0.006561	-0.23895	-0.000458	0.96695	-0.17395	-0.004883	-0.013275
5.473	-0.000153	0.002289	-0.003662	-0.007629	-0.046997	-0.013275	-0.12909	-0.007477	0.052795	-0.015564	0.11459	0.010071	-0.034027	-0.10132	0.018005	-0.00412	0.010834	-0.32105	0.29511	-0.031433	-0.076294	-0.044861	-0.032043	-0.1506	0.000916	0.003357	-0.11932	-0.001373	0.35294	-0.11261	-0.004272	-0.006409
5.474	0.005035	0.032806	-0.016785	-0.015564	-0.041199	-0.021057	-0.12039	-0.004578	0.056458	-0.028534	0.10193	0.009155	-0.041351	-0.076904	0.052185	0.008087	0.025177	-0.43304	0.25696	-0.05249	0.003967	0.056152	0.098572	-0.17181	-0.33783	0.001678	0.4306	-0.001068	-0.79727	-0.2446	-0.004883	-0.005951
5.475	-0.004578	0.013885	-0.021515	0.013123	0.03479	0.013123	-0.11307	0.002747	0.050201	-0.059662	0.030212	0.008087	0.020142	-0.10223	0.001678	-0.00946	0.030823	-0.4361	0.026245	0.06897	0.068054	0.068359	0.25345	-0.099945	-0.17258	0.00412	0.8638	-0.007477	-0.46204	-0.17014	-0.007172	-0.003357
5.476	-0.000763	0.031738	-0.017242	0.03952	-0.041504	0.03067	-0.14053	0.000153	0.054169	-0.066376	-0.095978	0.008698	0.040894	-0.072479	0.026855	-0.007019	0.021057	-0.45944	-0.48462	0.14633	0.069275	0.048218	0.38803	-0.16068	-0.1889	-0.011902	0.3624	-0.01236	-1.1311	-0.03067	-0.010834	-0.009613
5.477	0	0.01358	-0.040283	0.025635	-0.054169	-0.008392	-0.16144	-0.002594	0.03952	-0.039368	-0.060577	0.002289	0.007019	-0.073853	0.047913	-0.000458	0.007324	-0.39642	-0.27771	0.14557	0.075989	0.025482	0.33295	-0.093689	-0.19043	-0.006256	0.032349	-0.006409	-0.38101	-0.053101	-0.007477	-0.002441
5.478	0.008087	0.041199	-0.055695	0.007477	-0.044403	-0.014343	-0.16785	-0.002899	0.050964	-0.023499	0.055847	0.010834	-0.030823	0.011444	0.004425	-0.008392	0.003052	-0.24109	-0.04776	0.21362	0.15137	-0.045319	0.30609	-0.03067	-0.24719	-0.000763	-0.41565	-0.00946	0.85281	-0.045319	-0.003357	-0.006104
5.479	0.005646	0.003052	-0.082092	0.005341	-0.1001	-0.010681	-0.14786	-0.002747	0.033264	-0.042572	0.10025	-0.002594	-0.0177	0.048218	0.008545	-0.000916	-0.023346	-0.25116	0.006714	0.19165	0.11475	-0.028534	0.13382	0.13123	-0.22766	-0.011444	-0.62714	-0.003204	-1.0963	-0.022125	-0.010376	-0.009766
5.48	0.013275	0.004883	-0.075836	-0.010223	-0.033875	0.039215	-0.15854	-0.008392	0.031433	-0.037842	0.10193	-0.010529	-0.041962	0.031281	0.016327	0.003204	-0.037079	-0.18341	0.048523	0.083313	0.092468	0.073547	-0.18204	0.11826	-0.54596	-0.010681	-0.38925	-0.001984	-1.6455	-0.056152	-0.004272	-0.005798
5.481	0.034485	0.027313	-0.085907	0.007172	0.045776	0.025635	-0.14358	-0.006866	0.03418	-0.057983	-0.098877	-0.003204	-0.019379	0.024719	-0.069885	-0.002899	-0.008545	-0.13687	-0.12589	0.071564	0.053101	0.053406	-0.36529	-0.027618	-0.75028	0.001373	-0.24826	-0.005341	0.73715	0.024567	-0.001068	0.005646
